<svg xmlns="http://www.w3.org/2000/svg" width="201" height="40" viewBox="0 0 201 40">
  <g id="Group_9" data-name="Group 9" transform="translate(-868 -2578)">
    <text id="_iamshakibb" data-name="@iamshakibb" transform="translate(928 2603)" fill="#fff" font-size="25" font-family="Sylfaen"><tspan x="0" y="0">@iamshakibb</tspan></text>
    <g id="Instagram" transform="translate(868 2578)">
      <path id="Path_10" data-name="Path 10" d="M20,0A20,20,0,1,1,0,20,20,20,0,0,1,20,0Z" fill="#3f729b"/>
      <path id="Path_11" data-name="Path 11" d="M81.863,63.708H68.057a4.353,4.353,0,0,0-4.349,4.349V81.865a4.353,4.353,0,0,0,4.349,4.349H81.865a4.353,4.353,0,0,0,4.349-4.349V68.057A4.355,4.355,0,0,0,81.863,63.708Zm1.37,2.516h.493v3.735l-3.763.012-.012-3.735ZM74.961,71.2A3.765,3.765,0,1,1,71.2,74.962,3.777,3.777,0,0,1,74.961,71.2Zm8.786,10.4a2.158,2.158,0,0,1-2.158,2.156h-13.3a2.158,2.158,0,0,1-2.158-2.156V72.456h3.125a7.172,7.172,0,0,0-.454,2.506,6.153,6.153,0,1,0,12.306,0,7.2,7.2,0,0,0-.453-2.506h3.088v9.136Z" transform="translate(-54.96 -54.96)" fill="#fff"/>
    </g>
  </g>
</svg>
