<svg xmlns="http://www.w3.org/2000/svg" width="201" height="40.28" viewBox="0 0 201 40.28">
  <g id="Group_7" data-name="Group 7" transform="translate(-868 -2706)">
    <text id="_iamshakibb" data-name="@iamshakibb" transform="translate(928 2735)" fill="#fff" font-size="25" font-family="Sylfaen"><tspan x="0" y="0">@iamshakibb</tspan></text>
    <g id="Twitter" transform="translate(867.999 2706)">
      <circle id="Ellipse_7" data-name="Ellipse 7" cx="20.14" cy="20.14" r="20.14" transform="translate(0.001 0)" fill="#55acee"/>
      <circle id="Ellipse_8" data-name="Ellipse 8" cx="20.14" cy="20.14" r="20.14" transform="translate(0.001 0)" fill="#55acee"/>
      <g id="Group_3" data-name="Group 3" transform="translate(9.013 12.216)">
        <path id="Path_14" data-name="Path 14" d="M48.567,36.285a9.6,9.6,0,0,1-2.765.757,4.827,4.827,0,0,0,2.117-2.663,9.637,9.637,0,0,1-3.057,1.168,4.818,4.818,0,0,0-8.2,4.391,13.665,13.665,0,0,1-9.923-5.03,4.819,4.819,0,0,0,1.49,6.427,4.78,4.78,0,0,1-2.18-.6c0,.02,0,.041,0,.061a4.817,4.817,0,0,0,3.862,4.72,4.833,4.833,0,0,1-2.174.083,4.819,4.819,0,0,0,4.5,3.343A9.718,9.718,0,0,1,25.1,50.934,13.69,13.69,0,0,0,46.179,39.4c0-.209,0-.416-.014-.623a9.762,9.762,0,0,0,2.4-2.492Z" transform="translate(-25.103 -34.028)" fill="#f1f2f2"/>
        <path id="Path_15" data-name="Path 15" d="M48.567,36.285a9.6,9.6,0,0,1-2.765.757,4.827,4.827,0,0,0,2.117-2.663,9.637,9.637,0,0,1-3.057,1.168,4.818,4.818,0,0,0-8.2,4.391,13.665,13.665,0,0,1-9.923-5.03,4.819,4.819,0,0,0,1.49,6.427,4.78,4.78,0,0,1-2.18-.6c0,.02,0,.041,0,.061a4.817,4.817,0,0,0,3.862,4.72,4.833,4.833,0,0,1-2.174.083,4.819,4.819,0,0,0,4.5,3.343A9.718,9.718,0,0,1,25.1,50.934,13.69,13.69,0,0,0,46.179,39.4c0-.209,0-.416-.014-.623a9.762,9.762,0,0,0,2.4-2.492Z" transform="translate(-25.103 -34.028)" fill="#f1f2f2"/>
      </g>
    </g>
  </g>
</svg>
